<svg id="visual" viewBox="0 0 960 540" width="960" height="540" xmlns="http://www.w3.org/2000/svg" xmlns:xlink="http://www.w3.org/1999/xlink" version="1.1"><rect x="0" y="0" width="960" height="540" fill="#f1f1f1"></rect><path d="M0 446L17.8 446.8C35.7 447.7 71.3 449.3 106.8 444C142.3 438.7 177.7 426.3 213.2 423C248.7 419.7 284.3 425.3 320 428.3C355.7 431.3 391.3 431.7 426.8 430.3C462.3 429 497.7 426 533.2 425C568.7 424 604.3 425 640 425C675.7 425 711.3 424 746.8 427.7C782.3 431.3 817.7 439.7 853.2 436.5C888.7 433.3 924.3 418.7 942.2 411.3L960 404L960 541L942.2 541C924.3 541 888.7 541 853.2 541C817.7 541 782.3 541 746.8 541C711.3 541 675.7 541 640 541C604.3 541 568.7 541 533.2 541C497.7 541 462.3 541 426.8 541C391.3 541 355.7 541 320 541C284.3 541 248.7 541 213.2 541C177.7 541 142.3 541 106.8 541C71.3 541 35.7 541 17.8 541L0 541Z" fill="#f64c72"></path><path d="M0 447L17.8 448.5C35.7 450 71.3 453 106.8 451.3C142.3 449.7 177.7 443.3 213.2 442.2C248.7 441 284.3 445 320 446.7C355.7 448.3 391.3 447.7 426.8 446.5C462.3 445.3 497.7 443.7 533.2 440.8C568.7 438 604.3 434 640 431C675.7 428 711.3 426 746.8 430.7C782.3 435.3 817.7 446.7 853.2 449.2C888.7 451.7 924.3 445.3 942.2 442.2L960 439L960 541L942.2 541C924.3 541 888.7 541 853.2 541C817.7 541 782.3 541 746.8 541C711.3 541 675.7 541 640 541C604.3 541 568.7 541 533.2 541C497.7 541 462.3 541 426.8 541C391.3 541 355.7 541 320 541C284.3 541 248.7 541 213.2 541C177.7 541 142.3 541 106.8 541C71.3 541 35.7 541 17.8 541L0 541Z" fill="#da4068"></path><path d="M0 463L17.8 463.7C35.7 464.3 71.3 465.7 106.8 468.5C142.3 471.3 177.7 475.7 213.2 474C248.7 472.3 284.3 464.7 320 460C355.7 455.3 391.3 453.7 426.8 452.2C462.3 450.7 497.7 449.3 533.2 454.5C568.7 459.7 604.3 471.3 640 476.5C675.7 481.7 711.3 480.3 746.8 479.2C782.3 478 817.7 477 853.2 472.2C888.7 467.3 924.3 458.7 942.2 454.3L960 450L960 541L942.2 541C924.3 541 888.7 541 853.2 541C817.7 541 782.3 541 746.8 541C711.3 541 675.7 541 640 541C604.3 541 568.7 541 533.2 541C497.7 541 462.3 541 426.8 541C391.3 541 355.7 541 320 541C284.3 541 248.7 541 213.2 541C177.7 541 142.3 541 106.8 541C71.3 541 35.7 541 17.8 541L0 541Z" fill="#be345d"></path><path d="M0 487L17.8 488.8C35.7 490.7 71.3 494.3 106.8 496C142.3 497.7 177.7 497.3 213.2 493C248.7 488.7 284.3 480.3 320 479.5C355.7 478.7 391.3 485.3 426.8 488.8C462.3 492.3 497.7 492.7 533.2 492.3C568.7 492 604.3 491 640 490.2C675.7 489.3 711.3 488.7 746.8 484.5C782.3 480.3 817.7 472.7 853.2 472.7C888.7 472.7 924.3 480.3 942.2 484.2L960 488L960 541L942.2 541C924.3 541 888.7 541 853.2 541C817.7 541 782.3 541 746.8 541C711.3 541 675.7 541 640 541C604.3 541 568.7 541 533.2 541C497.7 541 462.3 541 426.8 541C391.3 541 355.7 541 320 541C284.3 541 248.7 541 213.2 541C177.7 541 142.3 541 106.8 541C71.3 541 35.7 541 17.8 541L0 541Z" fill="#a22851"></path><path d="M0 505L17.8 502C35.7 499 71.3 493 106.8 492C142.3 491 177.7 495 213.2 498.7C248.7 502.3 284.3 505.7 320 506.5C355.7 507.3 391.3 505.7 426.8 505.7C462.3 505.7 497.7 507.3 533.2 506.8C568.7 506.3 604.3 503.7 640 502.2C675.7 500.7 711.3 500.3 746.8 498.7C782.3 497 817.7 494 853.2 492.7C888.7 491.3 924.3 491.7 942.2 491.8L960 492L960 541L942.2 541C924.3 541 888.7 541 853.2 541C817.7 541 782.3 541 746.8 541C711.3 541 675.7 541 640 541C604.3 541 568.7 541 533.2 541C497.7 541 462.3 541 426.8 541C391.3 541 355.7 541 320 541C284.3 541 248.7 541 213.2 541C177.7 541 142.3 541 106.8 541C71.3 541 35.7 541 17.8 541L0 541Z" fill="#881d45"></path><path d="M0 511L17.8 511C35.7 511 71.3 511 106.8 510.8C142.3 510.7 177.7 510.3 213.2 509.8C248.7 509.3 284.3 508.7 320 510.3C355.7 512 391.3 516 426.8 519.2C462.3 522.3 497.7 524.7 533.2 522.3C568.7 520 604.3 513 640 511.8C675.7 510.7 711.3 515.3 746.8 516C782.3 516.7 817.7 513.3 853.2 512.8C888.7 512.3 924.3 514.7 942.2 515.8L960 517L960 541L942.2 541C924.3 541 888.7 541 853.2 541C817.7 541 782.3 541 746.8 541C711.3 541 675.7 541 640 541C604.3 541 568.7 541 533.2 541C497.7 541 462.3 541 426.8 541C391.3 541 355.7 541 320 541C284.3 541 248.7 541 213.2 541C177.7 541 142.3 541 106.8 541C71.3 541 35.7 541 17.8 541L0 541Z" fill="#6e1339"></path></svg>