<svg id="visual" viewBox="0 0 900 600" width="900" height="600" xmlns="http://www.w3.org/2000/svg" xmlns:xlink="http://www.w3.org/1999/xlink" version="1.1"><rect x="0" y="0" width="900" height="600" fill="#f1f1f1"></rect><path d="M0 502L21.5 501.3C43 500.7 86 499.3 128.8 496.2C171.7 493 214.3 488 257.2 481.5C300 475 343 467 385.8 461.3C428.7 455.7 471.3 452.3 514.2 458.3C557 464.3 600 479.7 642.8 485.3C685.7 491 728.3 487 771.2 482.5C814 478 857 473 878.5 470.5L900 468L900 601L878.5 601C857 601 814 601 771.2 601C728.3 601 685.7 601 642.8 601C600 601 557 601 514.2 601C471.3 601 428.7 601 385.8 601C343 601 300 601 257.2 601C214.3 601 171.7 601 128.8 601C86 601 43 601 21.5 601L0 601Z" fill="#f64c72"></path><path d="M0 485L21.5 483.8C43 482.7 86 480.3 128.8 484.8C171.7 489.3 214.3 500.7 257.2 507C300 513.3 343 514.7 385.8 509.3C428.7 504 471.3 492 514.2 486.7C557 481.3 600 482.7 642.8 481.5C685.7 480.3 728.3 476.7 771.2 482.3C814 488 857 503 878.5 510.5L900 518L900 601L878.5 601C857 601 814 601 771.2 601C728.3 601 685.7 601 642.8 601C600 601 557 601 514.2 601C471.3 601 428.7 601 385.8 601C343 601 300 601 257.2 601C214.3 601 171.7 601 128.8 601C86 601 43 601 21.5 601L0 601Z" fill="#da4068"></path><path d="M0 508L21.5 507C43 506 86 504 128.8 502.3C171.7 500.7 214.3 499.3 257.2 500.2C300 501 343 504 385.8 506.2C428.7 508.3 471.3 509.7 514.2 514C557 518.3 600 525.7 642.8 528.8C685.7 532 728.3 531 771.2 528.8C814 526.7 857 523.3 878.5 521.7L900 520L900 601L878.5 601C857 601 814 601 771.2 601C728.3 601 685.7 601 642.8 601C600 601 557 601 514.2 601C471.3 601 428.7 601 385.8 601C343 601 300 601 257.2 601C214.3 601 171.7 601 128.8 601C86 601 43 601 21.5 601L0 601Z" fill="#be345d"></path><path d="M0 526L21.5 524.7C43 523.3 86 520.7 128.8 523.7C171.7 526.7 214.3 535.3 257.2 540.7C300 546 343 548 385.8 549.3C428.7 550.7 471.3 551.3 514.2 547.2C557 543 600 534 642.8 531.8C685.7 529.7 728.3 534.3 771.2 537.8C814 541.3 857 543.7 878.5 544.8L900 546L900 601L878.5 601C857 601 814 601 771.2 601C728.3 601 685.7 601 642.8 601C600 601 557 601 514.2 601C471.3 601 428.7 601 385.8 601C343 601 300 601 257.2 601C214.3 601 171.7 601 128.8 601C86 601 43 601 21.5 601L0 601Z" fill="#a22851"></path><path d="M0 552L21.5 551.3C43 550.7 86 549.3 128.8 547.3C171.7 545.3 214.3 542.7 257.2 544.7C300 546.7 343 553.3 385.8 555.2C428.7 557 471.3 554 514.2 554.7C557 555.3 600 559.7 642.8 560.7C685.7 561.7 728.3 559.3 771.2 557.2C814 555 857 553 878.5 552L900 551L900 601L878.5 601C857 601 814 601 771.2 601C728.3 601 685.7 601 642.8 601C600 601 557 601 514.2 601C471.3 601 428.7 601 385.8 601C343 601 300 601 257.2 601C214.3 601 171.7 601 128.8 601C86 601 43 601 21.5 601L0 601Z" fill="#881d45"></path><path d="M0 565L21.5 567C43 569 86 573 128.8 574C171.7 575 214.3 573 257.2 574.5C300 576 343 581 385.8 583C428.7 585 471.3 584 514.2 580.3C557 576.7 600 570.3 642.8 568.5C685.7 566.7 728.3 569.3 771.2 571C814 572.7 857 573.3 878.5 573.7L900 574L900 601L878.5 601C857 601 814 601 771.2 601C728.3 601 685.7 601 642.8 601C600 601 557 601 514.2 601C471.3 601 428.7 601 385.8 601C343 601 300 601 257.2 601C214.3 601 171.7 601 128.8 601C86 601 43 601 21.5 601L0 601Z" fill="#6e1339"></path></svg>